<?xml version="1.0" encoding="utf-8"?>
<!-- Generator: Adobe Illustrator 19.1.0, SVG Export Plug-In . SVG Version: 6.00 Build 0)  -->
<svg version="1.1" id="Layer_1" xmlns="http://www.w3.org/2000/svg" xmlns:xlink="http://www.w3.org/1999/xlink" x="0px" y="0px"
	 viewBox="0 0 37.3 30" style="enable-background:new 0 0 37.3 30;" xml:space="preserve">
<style type="text/css">
	.st0{fill:#FFFFFF;}
</style>
<path class="st0" d="M25.4,16.2v3.9H9V9.6h10.4V8.1H8.2c-0.4,0-0.7,0.3-0.7,0.8v12c0,0.4,0.3,0.8,0.7,0.8h18c0.4,0,0.8-0.3,0.8-0.8
	v-4.7H25.4z"/>
<g>
	<path class="st0" d="M26.6,8.5c0.3,0.3,0.3,0.8,0,1.1l-5.2,5.2c-0.3,0.3-0.8,0.3-1.1,0c-0.3-0.3-0.3-0.8,0-1.1l5.2-5.2
		C25.8,8.2,26.3,8.2,26.6,8.5z"/>
	<path class="st0" d="M26.6,8.5c0.1,0.1,0.2,0.3,0.2,0.5l0.1,2.9c0,0.4-0.3,0.8-0.7,0.8c-0.4,0-0.8-0.3-0.8-0.7l-0.1-2.2l-2.3-0.1
		c-0.4,0-0.7-0.4-0.7-0.8c0-0.4,0.4-0.7,0.8-0.7l3,0.1C26.3,8.2,26.5,8.3,26.6,8.5z"/>
</g>
</svg>
