<?xml version="1.0" encoding="utf-8"?>
<!-- Generator: Adobe Illustrator 21.0.2, SVG Export Plug-In . SVG Version: 6.00 Build 0)  -->
<svg version="1.1" id="Layer_1" xmlns="http://www.w3.org/2000/svg" xmlns:xlink="http://www.w3.org/1999/xlink" x="0px" y="0px"
	 viewBox="0 0 20 20" style="enable-background:new 0 0 20 20;" xml:space="preserve">
<style type="text/css">
	.st0{fill:#323232;}
</style>
<g>
	<path class="st0" d="M18.9,0c0.3,0,0.6,0.1,0.8,0.3C19.9,0.5,20,0.8,20,1.1v17.8c0,0.3-0.1,0.6-0.3,0.8c-0.2,0.2-0.5,0.3-0.8,0.3
		h-5.1v-7.7h2.6l0.4-3h-3v-2c0-0.5,0.1-0.9,0.3-1.1s0.6-0.4,1.2-0.4h1.6V3.1c-0.6,0-1.3-0.1-2.3-0.1c-1.2,0-2.1,0.3-2.8,1
		c-0.8,0.8-1.1,1.7-1.1,3v2.2H8.1v3h2.6V20H1.1c-0.3,0-0.6-0.1-0.8-0.3C0.1,19.5,0,19.2,0,18.9V1.1c0-0.3,0.1-0.6,0.3-0.8
		S0.8,0,1.1,0H18.9z"/>
</g>
</svg>
