<svg viewBox="0 0 194.99 31.69" xmlns="http://www.w3.org/2000/svg" xmlns:xlink="http://www.w3.org/1999/xlink"><linearGradient id="a" gradientTransform="matrix(1 0 0 -1 -77 -184.31)" gradientUnits="userSpaceOnUse" x1="79.01" x2="107.26" y1="-203.86" y2="-203.86"><stop offset=".25" stop-color="#e54c25"/><stop offset=".75" stop-color="#ed9b21"/></linearGradient><g fill="#0160a8"><path d="m154.96 13.03v16.45l-2.62.6v.67h8.23v-.67l-2.62-.6v-16.45h4.43l1.47 3.12h.56l-.42-4.11h-15.07l-.42 4.09h.56l1.45-3.12h4.45z"/><path d="m125.49 31.72-6.75-18-2.19.56-6.55 17.44-2.12.6v.68h6.12v-.68l-2.71-.6 1.9-5.17h7.19l1.91 5.17-2.71.6v.68h8v-.68zm-11.8-6.56 3.11-8.34 3.09 8.34h-6.22z" transform="translate(-2.01 -2.24)"/><path d="m184.18 27.82h.52l1.76 4a7.83 7.83 0 0 0 3.37.83c2.25 0 4.34-1.35 4.34-3.68 0-1.79-1.16-2.87-3-3.85l-1.86-1c-2.25-1.16-4.45-2.81-4.45-5.43 0-2.86 2-5.06 6.22-5.06a14.62 14.62 0 0 1 4.38.72l.44 4.33h-.6l-1.62-3.47a5.62 5.62 0 0 0 -2.71-.71c-2.14 0-3.6 1.32-3.6 3.15s1.12 2.7 3 3.68l2.2 1.12c3 1.56 4.44 3 4.44 5.67 0 3.3-3.09 5.35-6.94 5.35a16.56 16.56 0 0 1 -5.34-.79z" transform="translate(-2.01 -2.24)"/><path d="m168.91 30.08 2.62-.6v-16.16l-2.62-.61v-.67h8.23v.67l-2.63.61v16.16l2.63.6v.67h-8.24v-.67z"/><path d="m145.93 31.72-5.18-7.87c.65-.16 4.36-1.12 4.36-4.65 0-2.81-2.16-5-7.47-5-3.28 0-6.61.07-7 .08v.72l2.17.61v16.1l-2.17.61v.68h7.68v-.68l-2.52-.61v-7.3h2.17l5.54 8.59h4.91v-.65zm-9-8.27h-1.2v-8.18c4 0 6.31.91 6.31 4.14.04 2.41-2.04 4.04-5.04 4.04z" transform="translate(-2.01 -2.24)"/><path d="m90.17 13.33-1.97-.6v-.68h7.58v.68l-2.36.59 5.24 14.27h.02l5.24-14.27-2.37-.61v-.67h5.62v.67l-1.97.61-6.64 17.77h-1.68z"/><path d="m88.18 22.81a9.4 9.4 0 0 0 -9.69-9.11 9.64 9.64 0 0 0 -9.65 10 9.62 9.62 0 0 0 9.67 9.92c5.07 0 9.67-3.8 9.67-10.43q0-.19 0-.38zm-3.18 1.34c0 4.28-1.8 8.56-6 8.56-4.58 0-7-5.38-7-9.71s1.89-8.4 6.09-8.4c3.95 0 6.85 4.71 6.85 9.56z" transform="translate(-2.01 -2.24)"/><path d="m62.32 33.27-12.38-15.93v14.36l2.52.6v.7h-5.7v-.68l2.06-.6v-15.64a4.4 4.4 0 0 0 -1.78-1c-.24-.08-.59-.08-.59-.08v-.71h4.88l10.58 13.71v-12.43l-2.54-.57v-.71h5.75v.71l-2 .6v14.21c0 1.3.09 3.24.11 3.48h-.88z" transform="translate(-2.01 -2.24)"/><path d="m14.16 24.93 2.62-24.93h-5.48l2.62 24.93z"/></g><path d="m4.35 5.36a5.85 5.85 0 0 1 1.77 4.23c0 4.88-4.12 8.34-4.12 13.94 0 5.16 3.6 10.4 14.06 10.4 9.3 0 14.2-4.55 14.2-9.4 0-4.15-3-7.66-8.73-8.22l-.08.2a8.07 8.07 0 0 1 4.29 7.49 9.09 9.09 0 0 1 -9.47 8.77c-7.2 0-9.68-4.21-9.68-8.08 0-5 3.46-8.26 3.46-12.77a7.05 7.05 0 0 0 -5.56-6.8z" fill="url(#a)" transform="translate(-2.01 -2.24)"/></svg>