<?xml version="1.0" encoding="utf-8"?>
<!-- Generator: Adobe Illustrator 20.0.0, SVG Export Plug-In . SVG Version: 6.00 Build 0)  -->
<svg version="1.1" id="Layer_1" xmlns="http://www.w3.org/2000/svg" xmlns:xlink="http://www.w3.org/1999/xlink" x="0px" y="0px"
	 viewBox="0 0 189 30.9" style="enable-background:new 0 0 189 30.9;" xml:space="preserve">
<style type="text/css">
	.st0{fill:url(#XMLID_3_);}
	.st1{fill:#0460A9;}
</style>
<g id="XMLID_53_">
	<linearGradient id="XMLID_3_" gradientUnits="userSpaceOnUse" x1="0" y1="16.9557" x2="27.3706" y2="16.9557">
		<stop  offset="0.3" style="stop-color:#E74A21"/>
		<stop  offset="0.7" style="stop-color:#EC9A1E"/>
	</linearGradient>
	<path id="XMLID_72_" class="st0" d="M18.9,13.8L18.8,14c1.3,0.6,4.2,2.8,4.2,7.3c0,4.2-3.6,8.5-9.2,8.5c-7,0-9.4-4.1-9.4-7.8
		c0-4.8,3.4-8,3.4-12.4c0-3-2.3-6.1-5.4-6.6L2.3,3.2C3.6,4.6,4,5.9,4,7.3c0,4.7-4,8.1-4,13.5c0,5,3.5,10.1,13.6,10.1
		c9,0,13.8-4.4,13.8-9.1C27.4,17.8,24.5,14.4,18.9,13.8z"/>
	<path id="XMLID_2_" class="st1" d="M58.5,30.1l-12-15.5v13.9l2.4,0.6v0.7h-5.6v-0.7l2-0.6V13.4c-0.2-0.2-0.9-0.8-1.7-1
		c-0.2-0.1-0.6-0.1-0.6-0.1v-0.7h4.7L58.1,25V12.9l-2.4-0.6v-0.7h5.6v0.7l-2,0.6c0,0,0,12.2,0,13.8c0,1.3,0.1,3.1,0.1,3.4H58.5z
		 M83.6,20.3c0,6.4-4.5,10.1-9.4,10.1c-5,0-9.4-3.8-9.4-9.6c0-5.9,4.5-9.6,9.3-9.6C80.2,11.1,83.6,15.8,83.6,20.3z M80.4,21.2
		c0-4.7-2.8-9.3-6.6-9.3c-4.1,0-5.9,3.9-5.9,8.1c0,4.2,2.3,9.4,6.7,9.4C78.7,29.5,80.4,25.4,80.4,21.2z M87.4,12.9l-1.9-0.6v-0.7
		h7.4v0.7l-2.3,0.6l5.1,13.8h0l5.1-13.8l-2.3-0.6v-0.7h5.4v0.7l-1.9,0.6l-6.4,17.2h-1.6L87.4,12.9z M130.9,20.6h-1.2v-7.9
		c3.9,0,6.1,0.9,6.1,4C135.8,19,133.8,20.6,130.9,20.6z M163.7,29.2l2.5-0.6V12.9l-2.5-0.6v-0.7h8v0.7l-2.5,0.6v15.7l2.5,0.6v0.7h-8
		V29.2z M176.6,24.8h0.5l1.7,3.9c0.5,0.3,1.8,0.8,3.2,0.8c2.2,0,4.2-1.3,4.2-3.6c0-1.7-1.1-2.8-3-3.7c-0.6-0.3-1.2-0.6-1.8-0.9
		c-2.2-1.1-4.3-2.7-4.3-5.3c0-2.8,1.9-4.9,6-4.9c2.1,0,3.9,0.6,4.2,0.7l0.4,4.2h-0.5l-1.6-3.4c-0.3-0.1-1.2-0.7-2.6-0.7
		c-2.1,0-3.5,1.3-3.5,3.1c0,1.6,1.1,2.6,2.9,3.6c0.7,0.4,1.4,0.7,2.1,1.1c2.9,1.5,4.3,2.9,4.3,5.5c0,3.2-3,5.2-6.7,5.2
		c-2.9,0-4.6-0.6-5.2-0.8L176.6,24.8z M102.7,29.2l2.1-0.6l6.3-16.9l2.1-0.5l6.5,17.4l2.1,0.6v0.7H114v-0.7l2.6-0.6l-1.9-5h-7
		l-1.8,5l2.6,0.6v0.7h-5.9V29.2z M108.3,22.2h6l-3-8.1h0L108.3,22.2z M134.5,20.9c0.6-0.2,4.2-1.1,4.2-4.5c0-2.7-2.1-4.8-7.2-4.8
		c-3.2,0-6.4,0.1-6.8,0.1v0.7l2.1,0.6v15.7l-2.1,0.6v0.7h7.4v-0.7l-2.4-0.6v-7.1h2.1l5.4,8.3h4.8v-0.6l-2.4-0.6L134.5,20.9z
		 M150.2,12.6v15.9l-2.5,0.6v0.7h8v-0.7l-2.5-0.6V12.6h4.3l1.4,3h0.5l-0.4-4h-14.6l-0.4,4h0.5l1.4-3H150.2z M13.7,24.2L16.3,0H11
		l2.5,24.2H13.7z"/>
</g>
</svg>
