<?xml version="1.0" encoding="utf-8"?>
<!-- Generator: Adobe Illustrator 21.0.2, SVG Export Plug-In . SVG Version: 6.00 Build 0)  -->
<svg version="1.1" id="Layer_1" xmlns="http://www.w3.org/2000/svg" xmlns:xlink="http://www.w3.org/1999/xlink" x="0px" y="0px"
	 width="31px" height="35px" viewBox="0 0 31 35" style="enable-background:new 0 0 31 35;" xml:space="preserve">
<style type="text/css">
	.st0{fill:#474747;}
</style>
<g>
	<rect x="2.5" class="st0" width="26" height="4"/>
	<rect x="2.5" y="9" class="st0" width="26" height="4"/>
	<rect x="2.5" y="18" class="st0" width="26" height="4"/>
	<g>
		<path class="st0" d="M0,34.9v-7.9h2.4l1.4,5.4l1.4-5.4h2.4v7.9H6.2v-6.3l-1.6,6.3H3.1l-1.6-6.3v6.3H0z"/>
		<path class="st0" d="M9.3,34.9v-7.9h5.9v1.3h-4.3V30h4v1.3h-4v2.2h4.4v1.3H9.3z"/>
		<path class="st0" d="M16.7,34.9v-7.9h1.6l3.3,5.3v-5.3H23v7.9h-1.6l-3.2-5.2v5.2H16.7z"/>
		<path class="st0" d="M24.7,26.9h1.6v4.3c0,0.7,0,1.1,0.1,1.3c0.1,0.3,0.2,0.6,0.5,0.8c0.3,0.2,0.6,0.3,1.1,0.3
			c0.5,0,0.8-0.1,1-0.3c0.2-0.2,0.4-0.4,0.4-0.7c0-0.3,0.1-0.7,0.1-1.3v-4.4H31v4.2c0,1,0,1.6-0.1,2c-0.1,0.4-0.2,0.7-0.5,1
			c-0.2,0.3-0.5,0.5-0.9,0.6c-0.4,0.2-0.9,0.2-1.5,0.2c-0.8,0-1.3-0.1-1.7-0.3c-0.4-0.2-0.7-0.4-0.9-0.7c-0.2-0.3-0.4-0.6-0.4-0.9
			c-0.1-0.5-0.2-1.1-0.2-2V26.9z"/>
	</g>
</g>
</svg>
